<svg width="604" height="403" viewBox="0 0 604 403" fill="none" xmlns="http://www.w3.org/2000/svg">
<path d="M427.092 314.05C443.273 314.181 459.247 310.411 473.664 303.058C488.081 295.705 500.517 284.986 509.921 271.807L510.292 271.283C530.232 243.17 533.92 206.086 528.073 172.145C523.958 148.256 514.826 124.156 496.665 108.133C480.422 93.8022 458.517 87.3542 436.942 85.5649C402.957 82.7277 368.037 90.7877 339.094 108.81C317.752 122.069 299.375 140.623 275.795 149.271C226.057 167.519 166.559 137.229 119.133 160.853C87.4431 176.611 70.2251 216.766 80.622 250.666C88.8525 277.473 109.227 297.301 138.389 306.86C149.487 310.43 161.071 312.257 172.728 312.277L427.092 314.05Z" fill="#EBEBEB"/>
<path d="M85.2767 194.754C85.6832 194.718 86.0738 194.579 86.4122 194.351C86.8105 194.062 87.0953 193.643 87.2176 193.166C87.2842 192.856 87.3086 192.539 87.2901 192.223C87.2901 191.884 87.2901 191.522 87.2901 191.135C87.2901 188.024 87.3625 183.558 87.4109 178.054C87.4109 176.673 87.427 175.23 87.4592 173.725C87.4592 172.968 87.4592 172.202 87.4592 171.42C87.492 171.039 87.492 170.656 87.4592 170.276C87.386 169.911 87.2099 169.576 86.9518 169.308C86.6926 169.037 86.3545 168.853 85.9854 168.785C85.5806 168.756 85.1742 168.756 84.7694 168.785H82.2245H76.8932H53.1681C52.6914 168.795 52.2356 168.982 51.8889 169.31C51.5423 169.637 51.3294 170.082 51.2917 170.558L51.2433 173.637C51.2433 175.692 51.1789 177.667 51.1467 179.698C51.0903 183.671 51.0339 187.5 50.9776 191.151V192.513C50.9486 192.926 51.05 193.338 51.2675 193.69C51.475 194.036 51.7926 194.303 52.1695 194.448C52.5652 194.57 52.981 194.614 53.3936 194.577H58.4189H67.4466L80.5092 194.641L84.0607 194.681H84.9868H85.3009C85.1965 194.692 85.0912 194.692 84.9868 194.681H84.0607H80.5092L67.4466 194.754H58.4189H53.3694C52.9138 194.794 52.4547 194.748 52.0164 194.617C51.5624 194.44 51.178 194.12 50.9212 193.706C50.6655 193.291 50.5445 192.807 50.5749 192.32C50.5749 191.868 50.5749 191.417 50.5749 190.958C50.6232 187.306 50.6715 183.478 50.7199 179.504C50.7199 177.522 50.7762 175.474 50.8085 173.443C50.8085 172.412 50.8085 171.38 50.8568 170.332C50.9476 169.787 51.2273 169.291 51.647 168.931C52.0667 168.571 52.5995 168.371 53.152 168.365H76.8771H84.7613C85.1887 168.354 85.6164 168.37 86.0418 168.414C86.4825 168.496 86.8857 168.716 87.1934 169.042C87.4948 169.358 87.7014 169.752 87.7894 170.179C87.825 170.584 87.825 170.991 87.7894 171.396C87.7894 172.202 87.7894 172.952 87.7894 173.701C87.7894 175.208 87.741 176.659 87.7169 178.037C87.6041 183.542 87.5236 188 87.4592 191.111C87.4592 191.498 87.4592 191.86 87.4592 192.207C87.469 192.532 87.4365 192.857 87.3625 193.174C87.2168 193.672 86.9039 194.105 86.4767 194.399C86.2159 194.573 85.918 194.684 85.6069 194.722C85.4997 194.752 85.3878 194.763 85.2767 194.754Z" fill="#455A64"/>
<path d="M70.5955 179.44L74.9927 182.107L70.4989 184.751L66.0051 187.387L66.1018 182.075L66.1984 176.764L70.5955 179.44Z" fill="#455A64"/>
<path d="M477.965 102.362C479.417 101.719 480.649 100.664 481.508 99.3269C482.367 97.9903 482.815 96.431 482.797 94.8419C482.797 90.3525 479.415 86.6932 475.203 86.6691C470.991 86.6449 467.568 90.2799 467.552 94.7694C467.519 96.3709 467.96 97.9464 468.82 99.2975C469.68 100.649 470.92 101.715 472.384 102.362C460.659 104.135 461.19 116.87 461.19 116.87L488.918 116.999C488.918 116.999 489.594 104.151 477.965 102.362Z" fill="#407BFF"/>
<path d="M313.625 73.6639L268.656 77.9341L271.532 108.273L316.501 104.002L313.625 73.6639Z" fill="white"/>
<path d="M316.496 103.974C316.496 103.974 316.496 103.78 316.423 103.41L316.254 101.798C316.109 100.371 315.9 98.3157 315.634 95.6801C315.111 90.4089 314.362 82.8486 313.46 73.6441L313.637 73.7972L268.683 78.1819L268.868 77.9562V78.1819V78.4398L268.917 78.9395L269.013 79.9551L269.207 81.962L269.577 85.9356C269.824 88.5631 270.068 91.1477 270.31 93.6893C270.785 98.7671 271.244 103.651 271.679 108.27L271.47 108.101L303.844 105.118L313.114 104.312L315.586 104.095L316.23 104.046H316.496H316.295L315.675 104.111L313.259 104.369L304.046 105.296L271.566 108.471H271.373V108.278C270.93 103.651 270.463 98.7752 269.972 93.6974C269.73 91.1612 269.486 88.5766 269.239 85.9436C269.11 84.6299 268.981 83.3 268.86 81.9701L268.667 79.9631L268.546 78.9879L268.498 78.4881V78.2302V77.9965L268.691 77.7627L313.661 73.5312H313.83V73.7005C314.636 82.9534 315.36 90.554 315.844 95.8655C316.069 98.4769 316.254 100.524 316.375 101.943C316.432 102.62 316.472 103.152 316.504 103.555C316.536 103.958 316.496 103.974 316.496 103.974Z" fill="#455A64"/>
<path d="M313.629 73.6685C313.531 73.8434 313.412 74.0058 313.275 74.1521L312.212 75.3852C311.253 76.4814 309.908 78.0128 308.249 79.8908L294.945 94.7857L294.824 94.9146L294.68 94.8179L293.48 94.0522L275.875 82.7682L270.592 79.254L269.158 78.2949C268.987 78.1909 268.826 78.0722 268.675 77.9403C268.861 78.0165 269.039 78.111 269.207 78.2224L270.681 79.117L276.06 82.47L293.729 93.6653L294.929 94.4713H294.655L308.04 79.6651L312.107 75.2482L313.218 74.0634C313.346 73.9229 313.484 73.7909 313.629 73.6685Z" fill="#455A64"/>
<path d="M213.655 109.874C213.568 108.892 213.415 107.917 213.196 106.956C212.91 105.841 212.457 104.775 211.851 103.797C211.068 102.491 210.04 101.35 208.823 100.436C207.245 99.2401 205.392 98.4607 203.435 98.1692C201.477 97.8777 199.478 98.0833 197.621 98.7671C195.432 99.5741 193.528 101.006 192.144 102.886C190.653 104.907 189.849 107.353 189.849 109.866C189.849 112.378 190.653 114.824 192.144 116.846C193.524 118.731 195.429 120.166 197.621 120.972C200.207 121.917 203.042 121.932 205.638 121.014C208.234 120.097 210.431 118.304 211.851 115.943C212.457 114.964 212.91 113.899 213.196 112.783C213.414 111.825 213.567 110.853 213.655 109.874C213.664 109.938 213.664 110.003 213.655 110.067V110.639C213.655 110.95 213.63 111.26 213.582 111.566C213.538 111.99 213.463 112.411 213.357 112.824C213.09 113.958 212.653 115.045 212.06 116.048C210.634 118.496 208.394 120.365 205.731 121.328C203.069 122.292 200.152 122.288 197.492 121.319C196.384 120.945 195.34 120.402 194.399 119.707C193.404 118.989 192.531 118.116 191.814 117.12C190.267 115.029 189.431 112.496 189.431 109.894C189.431 107.292 190.267 104.759 191.814 102.668C192.531 101.672 193.404 100.799 194.399 100.081C195.34 99.3863 196.384 98.8425 197.492 98.4689C199.406 97.7734 201.465 97.5735 203.477 97.8877C205.489 98.202 207.389 99.0202 209 100.266C210.233 101.215 211.27 102.395 212.052 103.74C212.65 104.741 213.09 105.829 213.357 106.964C213.463 107.377 213.538 107.797 213.582 108.221C213.63 108.528 213.655 108.838 213.655 109.148V109.721C213.66 109.772 213.66 109.823 213.655 109.874Z" fill="#263238"/>
<path d="M229.786 129.927C229.721 130.024 225.469 127.284 220.299 123.81C215.129 120.336 210.981 117.434 211.046 117.362C211.11 117.289 215.354 120.005 220.532 123.487C225.711 126.969 229.85 129.831 229.786 129.927Z" fill="#263238"/>
<path d="M265.381 152.092L255.975 141.96L259.019 139.131L265.518 146.119L279.153 132.691L282.068 135.657L265.381 152.092Z" fill="#407BFF"/>
<path d="M529.273 142.396H529.724H530.288L531.093 142.501C532.812 142.781 534.433 143.49 535.804 144.564C538.003 146.298 539.425 148.835 539.758 151.617C539.839 152.423 539.839 153.269 539.839 154.123C539.839 154.978 539.839 155.872 539.839 156.791C539.839 158.621 539.839 160.563 539.839 162.594C539.839 164.625 539.839 166.777 539.839 169.042C539.839 170.155 539.839 171.299 539.839 172.46C539.895 173.661 539.776 174.864 539.485 176.03C538.992 177.915 537.99 179.628 536.587 180.979C535.185 182.33 533.437 183.267 531.536 183.687C530.207 183.917 528.857 184.001 527.509 183.937H491.559L491.704 183.881L483.595 191.997L483.232 192.36V183.768L483.442 183.978C482.552 184.009 481.661 183.977 480.776 183.881C479.889 183.768 479.021 183.543 478.191 183.212C476.557 182.554 475.112 181.499 473.987 180.143C472.862 178.786 472.093 177.171 471.748 175.442C471.599 174.599 471.529 173.743 471.539 172.887V170.38C471.539 167.06 471.539 163.787 471.539 160.595V155.856C471.49 154.304 471.539 152.751 471.684 151.206C471.925 149.687 472.491 148.238 473.343 146.958C474.163 145.738 475.228 144.702 476.468 143.914C477.708 143.126 479.098 142.604 480.55 142.38C481.929 142.249 483.314 142.206 484.698 142.251H499.709L521.389 142.323H527.268H528.79H529.313H528.79H527.268H521.389L499.709 142.396H484.698C483.333 142.353 481.966 142.399 480.607 142.533C478.461 142.858 476.474 143.86 474.937 145.394C473.4 146.928 472.393 148.913 472.062 151.061C471.921 152.588 471.878 154.122 471.933 155.655V160.394C471.933 163.618 471.933 166.842 471.933 170.179C471.863 171.842 471.93 173.508 472.135 175.16C472.482 176.805 473.217 178.344 474.277 179.649C475.924 181.644 478.268 182.938 480.832 183.268C481.699 183.359 482.571 183.388 483.442 183.357H483.651V191.828L483.297 191.675L491.414 183.558L491.471 183.502H491.559H527.509C528.843 183.569 530.18 183.488 531.496 183.26C532.759 182.987 533.959 182.476 535.031 181.753C537.089 180.362 538.574 178.271 539.211 175.869C539.491 174.764 539.613 173.624 539.573 172.484C539.573 171.323 539.573 170.179 539.573 169.067C539.573 166.834 539.573 164.69 539.573 162.619C539.573 160.547 539.573 158.645 539.573 156.815C539.573 155.896 539.573 155.01 539.573 154.147C539.573 153.285 539.573 152.455 539.517 151.665C539.205 148.93 537.824 146.429 535.675 144.709C534.332 143.631 532.74 142.907 531.045 142.606L530.28 142.477H529.724L529.273 142.396Z" fill="#263238"/>
<path d="M497.334 164.424C497.334 164.424 497.285 164.223 497.181 163.876C497.03 163.402 496.73 162.99 496.327 162.699C496.036 162.492 495.699 162.359 495.345 162.312C494.991 162.266 494.632 162.308 494.297 162.433C493.89 162.583 493.538 162.854 493.289 163.21C493.04 163.566 492.907 163.99 492.907 164.424C492.907 164.859 493.04 165.283 493.289 165.639C493.538 165.995 493.89 166.266 494.297 166.415C494.632 166.541 494.991 166.582 495.345 166.536C495.699 166.49 496.036 166.357 496.327 166.149C496.73 165.859 497.03 165.446 497.181 164.972C497.285 164.634 497.293 164.424 497.334 164.424C497.386 164.617 497.386 164.82 497.334 165.013C497.243 165.553 496.956 166.041 496.528 166.383C496.205 166.647 495.82 166.822 495.409 166.893C494.999 166.963 494.577 166.927 494.185 166.786C493.697 166.614 493.274 166.295 492.975 165.873C492.676 165.451 492.515 164.946 492.515 164.428C492.515 163.911 492.676 163.406 492.975 162.983C493.274 162.561 493.697 162.242 494.185 162.071C494.576 161.929 494.998 161.891 495.408 161.96C495.819 162.029 496.205 162.203 496.528 162.466C496.957 162.81 497.244 163.301 497.334 163.844C497.386 164.034 497.386 164.234 497.334 164.424Z" fill="#263238"/>
<path d="M508.004 164.344C507.945 164.167 507.897 163.986 507.859 163.804C507.708 163.328 507.409 162.913 507.006 162.619C506.714 162.41 506.375 162.277 506.02 162.231C505.665 162.184 505.303 162.226 504.968 162.353C504.565 162.507 504.218 162.781 503.973 163.137C503.728 163.493 503.597 163.915 503.597 164.348C503.597 164.78 503.728 165.202 503.973 165.558C504.218 165.915 504.565 166.188 504.968 166.343C505.304 166.466 505.666 166.505 506.021 166.457C506.376 166.41 506.714 166.276 507.006 166.068C507.407 165.776 507.705 165.364 507.859 164.892C507.897 164.707 507.946 164.524 508.004 164.344C508.004 164.344 508.077 164.553 508.004 164.932C507.907 165.47 507.622 165.956 507.199 166.302C506.876 166.566 506.491 166.742 506.08 166.812C505.669 166.883 505.248 166.846 504.855 166.705C504.367 166.534 503.945 166.215 503.646 165.793C503.346 165.37 503.186 164.865 503.186 164.348C503.186 163.83 503.346 163.325 503.646 162.903C503.945 162.481 504.367 162.162 504.855 161.99C505.247 161.848 505.668 161.81 506.079 161.879C506.49 161.948 506.875 162.123 507.199 162.385C507.622 162.734 507.908 163.223 508.004 163.763C508.077 164.134 508.028 164.344 508.004 164.344Z" fill="#263238"/>
<path d="M518.683 164.344C518.623 164.166 518.572 163.986 518.53 163.804C518.393 163.334 518.111 162.919 517.725 162.619C517.433 162.41 517.094 162.277 516.739 162.231C516.384 162.184 516.022 162.226 515.687 162.353C515.284 162.507 514.936 162.781 514.692 163.137C514.447 163.493 514.316 163.915 514.316 164.348C514.316 164.78 514.447 165.202 514.692 165.558C514.936 165.915 515.284 166.188 515.687 166.343C516.023 166.466 516.385 166.505 516.74 166.457C517.095 166.41 517.433 166.276 517.725 166.068C518.109 165.77 518.391 165.358 518.53 164.892C518.643 164.553 518.651 164.344 518.683 164.344C518.715 164.344 518.755 164.553 518.683 164.932C518.586 165.47 518.3 165.956 517.878 166.302C517.555 166.566 517.169 166.742 516.759 166.812C516.348 166.883 515.926 166.846 515.534 166.705C515.046 166.534 514.623 166.215 514.324 165.793C514.025 165.37 513.865 164.865 513.865 164.348C513.865 163.83 514.025 163.325 514.324 162.903C514.623 162.481 515.046 162.162 515.534 161.99C515.926 161.848 516.347 161.81 516.758 161.879C517.168 161.948 517.554 162.123 517.878 162.385C518.301 162.734 518.586 163.223 518.683 163.763C518.755 164.134 518.707 164.344 518.683 164.344Z" fill="#263238"/>
<path d="M125.189 109.003C125.189 102.088 117.941 97.7194 110.524 101.169C108.85 101.954 107.481 103.268 106.626 104.909C104.758 108.52 105.587 112.646 107.27 116.072L113.037 130.693C113.22 131.158 113.538 131.557 113.951 131.839C114.364 132.12 114.852 132.271 115.352 132.271C115.852 132.271 116.34 132.12 116.752 131.839C117.165 131.557 117.484 131.158 117.667 130.693L123.305 115.991C125.278 111.502 125.189 109.003 125.189 109.003ZM118.231 115.032C113.254 117.926 108.213 112.574 110.935 107.287C111.298 106.583 111.858 106.001 112.545 105.61C117.522 102.708 122.572 108.068 119.842 113.348C119.479 114.053 118.919 114.638 118.231 115.032Z" fill="#407BFF"/>
<path d="M150.791 132.893C150.791 132.893 150.791 132.982 150.895 133.159C151 133.337 151.04 133.603 151.161 133.965L152.16 137.012C153.038 139.696 154.318 143.637 155.961 148.691L156.009 148.852H155.848L139.613 145.878H139.508V145.765L139.725 145.87C132.637 151.171 124.011 154.007 115.163 153.946C113.159 153.914 111.16 153.747 109.179 153.446C107.128 153.138 105.101 152.683 103.115 152.084L100.111 150.988C99.6018 150.81 99.1065 150.595 98.6292 150.343L97.1635 149.642C93.1507 147.621 89.4904 144.965 86.3237 141.776C83.0043 138.408 80.3076 134.479 78.359 130.169C75.4584 123.856 74.2249 116.903 74.7765 109.976C75.3281 103.048 77.6464 96.3789 81.5096 90.6048C85.3728 84.8307 90.6517 80.1452 96.8413 76.9965C103.031 73.8477 109.924 72.3412 116.862 72.6208C126.918 72.9812 136.48 77.0777 143.682 84.1113C150.884 91.1449 155.21 100.611 155.816 110.664C156.123 114.829 155.75 119.016 154.713 123.06C154.072 125.616 153.177 128.1 152.039 130.475C151.644 131.281 151.33 131.902 151.105 132.289L150.758 132.902L151.064 132.289C151.282 131.862 151.588 131.249 151.966 130.435C153.069 128.054 153.938 125.57 154.56 123.02C155.562 118.989 155.907 114.822 155.582 110.68C155.197 104.595 153.437 98.6776 150.435 93.3724C147.433 88.0671 143.267 83.5127 138.252 80.0521C131.595 75.4813 123.725 73.0074 115.652 72.9485C107.58 72.8896 99.6741 75.2484 92.9516 79.7217C85.007 85.0496 79.2165 93.0335 76.6165 102.244C74.0166 111.455 74.777 121.291 78.7616 129.992C80.69 134.26 83.3564 138.154 86.6378 141.494C89.7722 144.651 93.3943 147.283 97.3648 149.288L98.8225 149.989C99.2928 150.243 99.783 150.459 100.288 150.634L103.252 151.722C105.222 152.32 107.232 152.775 109.268 153.084C111.23 153.383 113.21 153.552 115.195 153.592C123.971 153.649 132.525 150.836 139.556 145.58L139.774 145.419V145.693L139.669 145.556L155.88 148.602L155.768 148.731L152.063 137.02L151.105 133.957C151 133.619 150.928 133.353 150.871 133.151C150.815 132.95 150.791 132.877 150.791 132.877V132.893Z" fill="#263238"/>
<path d="M411.888 99.0657C411.777 98.5984 411.722 98.1194 411.727 97.639C411.701 97.06 411.633 96.4836 411.525 95.9142C411.429 95.1362 411.279 94.3659 411.074 93.609C410.571 91.5165 409.757 89.5114 408.658 87.6608C407.24 85.2048 405.365 83.0435 403.134 81.2934C400.449 79.1638 397.301 77.695 393.945 77.0054C390.098 76.2131 386.109 76.4607 382.388 77.7228C380.373 78.3827 378.471 79.3505 376.751 80.5921C374.935 81.8387 373.336 83.3743 372.016 85.138C369.162 88.8234 367.562 93.326 367.449 97.9871C367.336 102.648 368.716 107.223 371.388 111.043C372.035 111.959 372.746 112.829 373.514 113.646C374.27 114.426 375.077 115.156 375.93 115.83C377.582 117.149 379.426 118.207 381.398 118.966C385.05 120.406 389.019 120.848 392.898 120.247C396.286 119.719 399.502 118.402 402.288 116.403C404.602 114.766 406.582 112.7 408.119 110.317C409.296 108.518 410.199 106.554 410.801 104.49C411.041 103.744 411.229 102.981 411.364 102.209C411.499 101.647 411.591 101.076 411.638 100.5C411.659 100.017 411.738 99.5383 411.872 99.0737C411.926 99.5531 411.926 100.037 411.872 100.516C411.865 101.103 411.811 101.688 411.711 102.265C411.615 103.06 411.462 103.847 411.252 104.619C410.715 106.759 409.852 108.804 408.691 110.68C406.986 113.456 404.709 115.836 402.012 117.661C399.315 119.485 396.26 120.714 393.051 121.263C388.987 121.934 384.817 121.509 380.971 120.03C378.894 119.254 376.948 118.166 375.197 116.806C374.289 116.1 373.428 115.335 372.62 114.517C371.826 113.655 371.089 112.742 370.413 111.784C367.579 107.759 366.113 102.927 366.233 98.004C366.354 93.0807 368.054 88.3268 371.082 84.4448C371.798 83.5179 372.578 82.6426 373.417 81.8253C374.255 81.0288 375.148 80.2935 376.091 79.6249C377.9 78.3294 379.9 77.3233 382.018 76.6427C385.93 75.3433 390.119 75.1206 394.146 75.9979C397.323 76.6929 400.314 78.0591 402.919 80.0052C405.525 81.9513 407.685 84.4323 409.254 87.2819C410.331 89.2218 411.098 91.3187 411.525 93.4962C411.705 94.2917 411.821 95.1003 411.872 95.9142C411.946 96.494 411.973 97.079 411.952 97.6632C411.982 98.1317 411.96 98.6019 411.888 99.0657Z" fill="#455A64"/>
<path d="M407.386 84.9929C407.434 85.0654 407.024 85.4201 406.242 86.0004L404.793 87.0401C404.511 87.2336 404.205 87.4592 403.875 87.6688L402.763 88.2491C398.74 90.5484 394.164 91.7024 389.532 91.586L387.527 91.4973L385.61 91.191C385.296 91.1427 384.982 91.1024 384.676 91.0379L383.774 90.7961C383.186 90.6349 382.598 90.4979 382.042 90.3205C380.076 89.6585 378.186 88.7885 376.405 87.7252C373.393 85.9037 371.919 84.2433 372.032 84.1385C372.145 84.0337 373.796 85.3878 376.864 86.9676C378.638 87.8808 380.49 88.636 382.397 89.2244C382.928 89.3856 383.492 89.5065 384.064 89.6516L384.925 89.8611L385.819 89.9981L387.655 90.2722L389.564 90.3447C394.005 90.4399 398.402 89.4524 402.377 87.4673L403.504 86.9756C403.843 86.7983 404.157 86.6129 404.455 86.4437L405.985 85.6377C406.83 85.146 407.33 84.9284 407.386 84.9929Z" fill="#455A64"/>
<path d="M371.372 112.38C371.323 112.316 371.734 111.961 372.515 111.373L373.965 110.333C374.247 110.14 374.553 109.914 374.883 109.705L375.994 109.124C380.019 106.828 384.594 105.677 389.226 105.795L391.231 105.884L393.148 106.182C393.462 106.239 393.776 106.279 394.082 106.344L394.984 106.577C395.572 106.747 396.16 106.884 396.715 107.061C398.682 107.717 400.572 108.584 402.353 109.648C405.365 111.478 406.838 113.138 406.726 113.243C406.613 113.348 404.962 111.994 401.894 110.414C400.121 109.494 398.269 108.736 396.361 108.149C395.821 107.996 395.258 107.875 394.694 107.73L393.832 107.512L392.938 107.375L391.102 107.109L389.194 107.029C384.749 106.935 380.349 107.925 376.373 109.914L375.285 110.422C374.947 110.599 374.633 110.793 374.335 110.954L372.805 111.808C371.927 112.235 371.42 112.453 371.372 112.38Z" fill="#455A64"/>
<path d="M411.872 99.5895C411.872 99.936 401.781 99.9683 389.322 99.662C376.864 99.3557 366.829 98.856 366.837 98.4933C366.845 98.1306 376.92 98.1226 389.387 98.4288C401.853 98.7351 411.88 99.2509 411.872 99.5895Z" fill="#455A64"/>
<path d="M388.332 121.021C387.994 121.021 387.961 110.93 388.259 98.4933C388.557 86.0567 389.065 75.9817 389.427 75.9898C389.79 75.9978 389.798 86.0889 389.5 98.5578C389.202 111.027 388.67 121.029 388.332 121.021Z" fill="#455A64"/>
<path d="M388.332 120.989C388.251 121.117 385.771 119.433 382.904 115.629C381.232 113.389 379.877 110.929 378.877 108.318C377.66 105.096 377.07 101.671 377.138 98.2271C377.219 94.7771 377.991 91.3785 379.409 88.2327C380.546 85.6824 382.026 83.2989 383.806 81.1479C386.834 77.4806 389.33 75.8606 389.443 75.9895C389.556 76.1185 387.301 77.9723 384.514 81.688C382.895 83.8486 381.543 86.1978 380.488 88.684C379.192 91.7088 378.484 94.9531 378.402 98.2432C378.354 101.538 378.9 104.814 380.013 107.915C380.93 110.458 382.161 112.875 383.677 115.113C386.222 118.957 388.461 120.852 388.332 120.989Z" fill="#455A64"/>
<path d="M389.926 75.9976C390.015 75.8686 392.495 77.5532 395.354 81.3575C397.026 83.5974 398.381 86.0574 399.381 88.6679C400.59 91.8949 401.18 95.3212 401.121 98.7671C401.035 102.214 400.263 105.609 398.85 108.753C397.706 111.301 396.227 113.683 394.452 115.838C391.424 119.505 388.92 121.134 388.815 120.997C388.71 120.86 390.957 119.014 393.736 115.298C395.355 113.137 396.707 110.788 397.762 108.302C399.052 105.276 399.757 102.032 399.84 98.7429C399.888 95.4483 399.342 92.172 398.229 89.0709C397.308 86.5289 396.074 84.1112 394.557 81.8733C392.036 78.0287 389.781 76.1346 389.926 75.9976Z" fill="#455A64"/>
<path d="M366.886 132.071L366.612 132.144L365.807 132.337L362.682 133.071L350.715 135.811L350.554 135.851L350.602 135.69L354.999 119.78V119.667H355.152L355.023 119.876C351.389 114.028 349.308 107.347 348.975 100.468C348.886 98.5436 348.929 96.6154 349.104 94.697C349.316 92.7043 349.661 90.728 350.135 88.781C350.623 86.7633 351.255 84.7835 352.027 82.8569C352.478 81.8977 352.929 80.9305 353.388 79.9633C353.62 79.4702 353.889 78.996 354.194 78.5448C354.468 78.0773 354.741 77.6098 354.999 77.1423C357.368 73.3241 360.335 69.9116 363.785 67.0351C367.431 64.0259 371.581 61.6873 376.042 60.1277C382.586 57.7954 389.618 57.1833 396.466 58.3498C403.314 59.5164 409.748 62.4226 415.152 66.7903C420.556 71.158 424.75 76.8409 427.331 83.295C429.912 89.7491 430.795 96.7583 429.895 103.652C428.646 113.647 423.72 122.817 416.08 129.374C408.44 135.931 398.634 139.404 388.573 139.116C384.401 139.051 380.267 138.308 376.332 136.915C373.85 136.048 371.46 134.935 369.197 133.595C368.392 133.127 367.836 132.789 367.474 132.498L366.894 132.095L367.474 132.458C367.876 132.708 368.464 133.071 369.237 133.522C371.513 134.823 373.908 135.902 376.389 136.746C380.313 138.103 384.43 138.819 388.581 138.866C395.649 139.022 402.633 137.317 408.834 133.922C415.036 130.526 420.237 125.56 423.918 119.52C427.598 113.48 429.629 106.578 429.806 99.5059C429.983 92.4335 428.3 85.4386 424.926 79.2218C420.343 70.8177 412.919 64.3214 403.986 60.8965C395.052 57.4716 385.192 57.3419 376.171 60.5307C371.748 62.0732 367.632 64.3842 364.011 67.3575C360.594 70.2088 357.657 73.5915 355.313 77.3761C355.039 77.8355 354.766 78.303 354.508 78.7624C354.222 79.2121 353.966 79.6806 353.743 80.1648L352.374 83.0181C351.602 84.9275 350.972 86.8914 350.489 88.8938C350.013 90.8218 349.666 92.7793 349.45 94.7534C349.273 96.6582 349.227 98.573 349.313 100.484C349.625 107.309 351.671 113.942 355.257 119.756L355.402 119.989H355.128L355.273 119.893C353.541 126.026 352.052 131.394 350.795 135.787L350.683 135.658L362.666 132.99L365.799 132.313L366.604 132.144C366.697 132.122 366.791 132.106 366.886 132.095V132.071Z" fill="#263238"/>
<path d="M400.814 151.447C396.876 152.366 394.372 156.356 393.51 160.313C392.648 164.271 393.083 168.373 392.705 172.403C392.326 176.433 390.917 180.713 387.526 182.881L390.901 183.865C390.234 185.979 388.827 187.782 386.938 188.943C388.257 189.963 389.878 190.516 391.545 190.514C389.564 191.038 389.016 193.875 390.111 195.608C391.207 197.341 393.293 198.163 395.282 198.671C397.608 199.386 400.084 199.461 402.449 198.889C405.671 197.913 408.151 195.044 409.399 191.868C410.648 188.693 410.881 185.227 411.01 181.817C411.252 173.282 410.752 164.658 408.594 156.396C408.062 154.397 407.338 152.278 405.638 151.101C403.939 149.924 401.04 150.4 400.524 152.398" fill="#407BFF"/>
<path d="M489.828 274.652C488.894 271.09 483.45 251.02 478.553 237.915C473.149 223.366 462.003 220.36 462.003 220.36C436.917 211.792 414.376 211.744 390.329 220.094C389.523 220.336 388.807 220.594 388.09 220.9H388.018C370.163 227.912 368.319 246.789 368.319 246.789L360.789 292.578C360.711 292.94 360.651 293.306 360.612 293.674L360.54 294.109C360.412 296.249 360.928 298.379 362.022 300.222C363.116 302.065 364.737 303.538 366.676 304.45C377.146 309.286 387.164 308.133 395.765 304.579L389.515 313.687H463.92L459.04 301.669L460.651 294.415L472.175 308.295C473.556 309.956 475.405 311.161 477.482 311.752C490.77 313.3 492.92 293.497 490.424 281.971" fill="#455A64"/>
<path d="M442.692 215.371C442.692 215.371 430.684 275.821 426.456 275.354C422.228 274.886 402.393 216.516 402.393 216.516C402.393 216.516 427.745 209.745 442.692 215.371Z" fill="#FFBE9D"/>
<path d="M408.642 219.829C408.578 212.873 408.385 205.546 408.385 205.546C408.385 205.546 399.421 204.12 397.488 192.433C395.652 181.294 397.335 155.526 397.335 155.526C403.675 152.934 410.656 152.344 417.341 153.835C424.025 155.326 430.095 158.827 434.735 163.868L434.324 220.385C434.276 226.946 428.598 232.128 421.584 232.023C414.489 231.919 408.699 226.486 408.642 219.829Z" fill="#FFBE9D"/>
<path d="M400.307 175.023C400.305 175.414 400.455 175.79 400.726 176.071C400.996 176.353 401.366 176.517 401.756 176.53C401.947 176.544 402.139 176.52 402.321 176.459C402.502 176.398 402.669 176.301 402.813 176.174C402.956 176.047 403.073 175.892 403.155 175.72C403.238 175.547 403.286 175.359 403.295 175.168C403.297 174.777 403.147 174.401 402.876 174.119C402.605 173.838 402.235 173.673 401.845 173.661C401.654 173.646 401.462 173.671 401.281 173.732C401.1 173.793 400.932 173.89 400.789 174.017C400.645 174.144 400.529 174.298 400.446 174.471C400.363 174.644 400.316 174.831 400.307 175.023Z" fill="#263238"/>
<path d="M398.334 173.959C398.519 174.152 399.647 173.306 401.257 173.298C402.868 173.29 404.06 174.104 404.237 173.894C404.414 173.685 404.124 173.459 403.609 173.088C402.898 172.603 402.053 172.352 401.193 172.371C400.352 172.39 399.538 172.672 398.865 173.177C398.406 173.516 398.237 173.87 398.334 173.959Z" fill="#263238"/>
<path d="M416.615 175.804C416.612 176.195 416.763 176.571 417.033 176.853C417.304 177.134 417.674 177.299 418.064 177.312C418.253 177.323 418.443 177.296 418.621 177.233C418.8 177.17 418.964 177.073 419.105 176.946C419.246 176.82 419.36 176.666 419.441 176.495C419.523 176.324 419.569 176.139 419.578 175.95C419.581 175.559 419.43 175.183 419.16 174.901C418.889 174.619 418.519 174.455 418.129 174.442C417.94 174.431 417.751 174.458 417.572 174.521C417.393 174.584 417.229 174.681 417.088 174.808C416.947 174.934 416.833 175.088 416.752 175.259C416.671 175.43 416.624 175.615 416.615 175.804Z" fill="#263238"/>
<path d="M415.157 174.442C415.35 174.636 416.478 173.789 418.089 173.781C419.699 173.773 420.891 174.587 421.06 174.378C421.229 174.168 420.956 173.943 420.44 173.572C419.729 173.086 418.885 172.835 418.024 172.855C417.182 172.867 416.366 173.149 415.697 173.661C415.238 173.999 415.069 174.354 415.157 174.442Z" fill="#263238"/>
<path d="M409.383 186.444C408.53 186.186 407.648 186.034 406.758 185.993C406.347 185.993 405.952 185.872 405.888 185.59C405.848 185.164 405.941 184.736 406.154 184.364L407.354 181.221C409.013 176.74 410.221 173.064 410.035 172.992C409.85 172.919 408.36 176.506 406.693 180.987C406.299 182.092 405.888 183.139 405.55 184.147C405.295 184.644 405.224 185.215 405.348 185.759C405.407 185.904 405.499 186.033 405.617 186.136C405.734 186.24 405.874 186.315 406.025 186.355C406.254 186.415 406.489 186.447 406.725 186.452C407.608 186.562 408.501 186.56 409.383 186.444Z" fill="#263238"/>
<path d="M408.384 205.53C413.887 205.58 419.295 204.101 424.008 201.258C424.008 201.258 420.255 209.318 408.553 208.295L408.384 205.53Z" fill="#EB996E"/>
<path d="M410.084 190.329C410.391 189.943 410.79 189.64 411.245 189.449C411.699 189.257 412.194 189.183 412.685 189.233C413.041 189.264 413.387 189.366 413.702 189.534C414.017 189.701 414.296 189.931 414.521 190.208C414.739 190.476 414.868 190.805 414.893 191.15C414.917 191.494 414.835 191.838 414.658 192.134C414.401 192.425 414.062 192.632 413.686 192.728C413.31 192.825 412.913 192.806 412.548 192.674C411.787 192.41 411.086 191.997 410.486 191.457C410.302 191.33 410.143 191.169 410.019 190.982C409.959 190.894 409.926 190.79 409.926 190.684C409.926 190.577 409.959 190.473 410.019 190.385" fill="#EB996E"/>
<path d="M414.134 187.532C413.869 187.532 413.877 189.273 412.387 190.522C410.897 191.771 409.029 191.594 409.021 191.836C409.021 191.949 409.439 192.174 410.229 192.191C411.254 192.199 412.249 191.845 413.039 191.191C413.801 190.566 414.284 189.665 414.384 188.684C414.448 187.959 414.255 187.524 414.134 187.532Z" fill="#263238"/>
<path d="M428.437 154.446C424.274 160.62 413.063 167.1 404.986 168.696C405.912 167.43 410.841 164.271 411.759 163.013C408.135 165.818 402.9 169.582 398.068 169.921C397.496 170.009 396.911 169.928 396.385 169.687C396.106 169.473 395.881 169.197 395.727 168.881C395.574 168.565 395.495 168.217 395.499 167.866C395.168 164.337 395.219 160.784 395.652 157.267C395.99 154.294 397.451 151.563 399.735 149.634C402.82 147.159 407.273 146.49 411.485 146.313C415.012 146.168 418.653 146.313 421.906 147.53C425.16 148.747 427.962 151.222 428.486 154.236" fill="#407BFF"/>
<path d="M442.249 182.728C442.751 180.14 443.095 177.524 443.279 174.894C443.521 168.849 445.325 147.055 424.572 149.215L425.747 155.074C425.747 155.074 421.874 168.648 430.789 177.804C430.789 177.804 428.252 196.922 434.453 203.096C434.453 203.096 441.105 189.249 442.249 182.728Z" fill="#407BFF"/>
<path d="M430.523 176.788C431.773 176.516 433.074 176.591 434.284 177.005C435.5 177.436 436.497 178.331 437.054 179.496C437.547 180.687 437.568 182.022 437.111 183.228C436.651 184.425 435.93 185.504 435.001 186.387C434.376 187.065 433.601 187.587 432.738 187.911C432.305 188.063 431.843 188.107 431.389 188.039C430.936 187.972 430.506 187.795 430.136 187.524" fill="#FFBE9D"/>
<path d="M431.256 184.365C431.119 184.413 431.667 185.171 432.802 184.856C433.417 184.644 433.923 184.198 434.211 183.615C434.548 182.968 434.753 182.262 434.815 181.535C434.907 180.761 434.716 179.979 434.276 179.335C434.097 179.064 433.859 178.837 433.58 178.671C433.301 178.505 432.989 178.404 432.665 178.376C431.489 178.376 431.127 179.182 431.264 179.182C431.401 179.182 431.812 178.852 432.577 179.029C433.051 179.205 433.445 179.547 433.688 179.991C433.93 180.435 434.005 180.952 433.897 181.447C433.769 182.736 433.277 183.913 432.593 184.211C431.908 184.51 431.336 184.26 431.256 184.365Z" fill="#EB996E"/>
<path d="M389.58 276.127C389.467 276.127 389.371 271.38 389.371 265.52C389.371 259.661 389.467 254.921 389.58 254.921C389.693 254.921 389.789 259.669 389.789 265.52C389.789 271.372 389.693 276.127 389.58 276.127Z" fill="#263238"/>
<path d="M419.82 254.478C419.82 254.478 409.351 254.599 408.715 256.896C407.619 260.733 409.576 281.793 409.576 281.793L419.2 285.017C419.2 285.017 423.839 283.945 421.697 275.007C420.298 269.391 418.158 263.986 415.334 258.935C415.334 258.935 428.123 259.29 427.769 256.429C427.414 253.567 419.82 254.478 419.82 254.478Z" fill="#FFBE9D"/>
<path d="M415.665 260.692C416.236 260.58 429.017 259.524 428.22 261.571C427.422 263.618 415.665 264.126 415.665 264.126V260.692Z" fill="#FFBE9D"/>
<path d="M456.728 229.726L455.15 269.671L449.319 285.01L413.498 285.751L412.049 236.271L456.728 229.726Z" fill="#263238"/>
<path d="M407.885 268.559C407.75 268.652 407.604 268.727 407.45 268.785L406.162 269.365L401.386 271.404L385.586 278.005L376.896 281.592C374.5 282.492 372.174 283.569 369.938 284.816C368.44 285.666 367.117 286.793 366.04 288.137C365.299 289.104 365.033 289.749 364.993 289.749C365.035 289.587 365.1 289.433 365.186 289.289C365.386 288.86 365.629 288.452 365.911 288.072C366.952 286.665 368.267 285.483 369.777 284.598C372.009 283.309 374.342 282.202 376.751 281.286L385.457 277.675L401.306 271.187L406.138 269.268L407.458 268.769C407.591 268.681 407.735 268.611 407.885 268.559Z" fill="#263238"/>
<path d="M419.732 284.211C419.494 284.556 419.224 284.877 418.926 285.171C418.403 285.775 417.622 286.621 416.615 287.629C414.61 289.66 411.711 292.336 408.376 295.125C405.042 297.913 401.934 300.315 399.614 301.992C398.463 302.798 397.521 303.491 396.86 303.942C396.531 304.19 396.181 304.409 395.813 304.595C396.104 304.298 396.423 304.028 396.764 303.789L399.437 301.734C401.692 300.001 404.777 297.575 408.111 294.786C411.445 291.997 414.36 289.378 416.406 287.403C417.436 286.428 418.25 285.606 418.822 285.05C419.1 284.745 419.405 284.464 419.732 284.211Z" fill="#263238"/>
<path d="M473.681 309.778C473.592 309.858 468.341 303.829 461.947 296.318C455.553 288.806 450.439 282.664 450.528 282.616C450.616 282.567 455.867 288.548 462.261 296.043C468.656 303.539 473.769 309.705 473.681 309.778Z" fill="#263238"/>
<path d="M483.804 280.754C483.407 280.649 483.019 280.512 482.644 280.343C481.903 280.053 480.84 279.602 479.544 279.021C476.95 277.852 473.423 276.112 469.67 273.935C465.917 271.759 462.64 269.575 460.336 267.906C459.185 267.1 458.267 266.375 457.647 265.875C457.311 265.636 456.998 265.366 456.712 265.069C457.075 265.261 457.42 265.485 457.743 265.738C458.46 266.23 459.394 266.875 460.506 267.657C462.849 269.269 466.143 271.396 469.88 273.565C473.616 275.733 477.128 277.514 479.672 278.739L482.709 280.182C483.09 280.34 483.457 280.531 483.804 280.754Z" fill="#263238"/>
<path d="M465.265 271.985C465.152 271.985 464.524 267.737 463.864 262.466C463.203 257.195 462.76 252.899 462.873 252.891C462.986 252.883 463.622 257.138 464.283 262.41C464.943 267.681 465.386 271.977 465.265 271.985Z" fill="#263238"/>
<path d="M434.968 184.292C434.876 184.472 434.765 184.642 434.638 184.799L433.616 186.17L429.903 191.006V190.748L435.951 195.503L436.491 195.938H436.201L441.435 189.378V189.619L437.497 186.395L436.418 185.485C436.284 185.381 436.162 185.262 436.056 185.13C436.056 185.13 436.217 185.211 436.483 185.404L437.618 186.21L441.645 189.305L441.782 189.41L441.669 189.547C440.179 191.465 438.407 193.722 436.499 196.156L436.37 196.325L436.201 196.196L435.685 195.858C433.503 194.117 431.449 192.473 429.669 191.062L429.524 190.941L429.637 190.804L433.471 186.081L434.566 184.767C434.807 184.429 434.952 184.276 434.968 184.292Z" fill="#263238"/>
<path d="M450.334 281.987C444.536 281.72 438.759 281.101 433.036 280.133C426.263 279.053 426.335 278.432 426.593 277.659C427.237 275.579 438.576 279.109 436.539 276.925C434.501 274.741 422.22 274.225 422.985 272.089C423.984 269.292 435.79 273.21 436.813 273.467C437.835 273.725 438.198 272.25 437.264 272.065C435.927 271.799 421.89 268.696 422.84 265.939C423.372 264.408 426.013 265.69 426.013 265.69C426.013 265.69 438.955 269.574 439.366 268.253C439.776 266.931 432.254 264.376 429.653 263.707C427.052 263.038 426.335 261.539 427.543 260.636C428.349 260.023 436.402 261.901 438.906 262.635C441.411 263.368 448.426 265.48 445.768 261.627L445.655 261.442C442.933 257.718 442.071 253.946 442.563 252.681C442.698 252.417 442.903 252.195 443.156 252.04C443.409 251.886 443.7 251.804 443.996 251.804C444.293 251.804 444.583 251.886 444.836 252.04C445.089 252.195 445.294 252.417 445.43 252.681C445.56 252.867 445.65 253.078 445.695 253.301C445.721 253.413 445.754 253.524 445.792 253.632C446.433 255.077 447.221 256.452 448.144 257.734C448.942 258.906 449.933 259.934 451.075 260.773C452.396 261.732 455.738 265.262 456.712 265.891" fill="#FFBE9D"/>
<path d="M210.667 234.473C207.04 234.407 203.578 232.947 200.997 230.397C198.415 227.846 196.912 224.4 196.799 220.771C196.606 214.493 196.461 208.44 196.461 208.44C196.461 208.44 184.937 207.368 184.091 195.955C183.246 184.542 183.608 158.194 183.608 158.194C189.925 155.003 196.978 153.557 204.04 154.006C211.102 154.456 217.915 156.783 223.778 160.749L225.55 161.949L225.058 220.465C225.041 222.333 224.653 224.179 223.919 225.896C223.185 227.614 222.118 229.168 220.78 230.471C219.442 231.773 217.859 232.797 216.123 233.484C214.388 234.171 212.533 234.507 210.667 234.473Z" fill="#B78876"/>
<path d="M196.179 188.91C196.179 188.781 195.197 188.644 193.602 188.523C193.183 188.523 192.861 188.435 192.797 188.217C192.762 187.804 192.84 187.389 193.022 187.016L194.085 183.768C195.519 179.109 196.501 175.273 196.252 175.2C196.002 175.128 194.641 178.843 193.224 183.502C192.885 184.639 192.563 185.727 192.249 186.799C192.014 187.343 191.972 187.951 192.128 188.523C192.198 188.676 192.302 188.811 192.432 188.917C192.562 189.023 192.714 189.098 192.877 189.136C193.111 189.182 193.349 189.198 193.586 189.184C195.181 189.12 196.171 189.031 196.179 188.91Z" fill="#263238"/>
<path d="M201.39 190.329C198.969 191.499 196.432 192.41 193.82 193.045C194.403 193.839 195.239 194.411 196.19 194.669C197.14 194.926 198.15 194.854 199.054 194.463C202.388 192.996 201.39 190.329 201.39 190.329Z" fill="white"/>
<path d="M196.437 208.262C201.712 208.037 206.801 206.244 211.054 203.112C211.054 203.112 208.042 211.551 196.558 211.22L196.437 208.262Z" fill="#A36957"/>
<path d="M224.914 176.046C224.911 175.606 225.076 175.182 225.375 174.86C225.675 174.538 226.086 174.342 226.524 174.314C228.658 174.257 232.162 175.12 232.468 180.979C232.935 189.386 224.857 187.29 224.833 187.048C224.809 186.807 224.889 179.311 224.914 176.046Z" fill="#B78876"/>
<path d="M226.717 183.768C226.717 183.768 226.862 183.865 227.12 183.961C227.472 184.102 227.864 184.102 228.215 183.961C229.085 183.583 229.754 182.132 229.705 180.616C229.691 179.895 229.512 179.187 229.182 178.545C229.09 178.287 228.936 178.055 228.734 177.869C228.532 177.684 228.287 177.55 228.022 177.481C227.851 177.446 227.672 177.471 227.518 177.554C227.363 177.636 227.243 177.77 227.177 177.932C227.08 178.174 227.177 178.335 227.096 178.352C227.015 178.368 226.911 178.223 226.959 177.868C226.995 177.66 227.1 177.469 227.257 177.328C227.368 177.234 227.496 177.162 227.634 177.118C227.772 177.074 227.918 177.057 228.062 177.07C228.413 177.118 228.745 177.255 229.027 177.468C229.309 177.681 229.531 177.963 229.673 178.287C230.068 178.976 230.291 179.75 230.325 180.544C230.366 182.236 229.584 183.873 228.393 184.292C228.171 184.369 227.935 184.396 227.703 184.369C227.47 184.343 227.246 184.264 227.048 184.139C226.742 183.945 226.685 183.768 226.717 183.768Z" fill="#A36957"/>
<path d="M187.184 177.529C187.211 177.934 187.394 178.311 187.695 178.582C187.996 178.853 188.39 178.996 188.794 178.98C188.992 178.982 189.188 178.945 189.371 178.87C189.554 178.795 189.72 178.683 189.859 178.543C189.998 178.402 190.107 178.235 190.18 178.051C190.253 177.867 190.289 177.671 190.284 177.473C190.261 177.067 190.079 176.686 189.778 176.413C189.477 176.14 189.08 175.997 188.674 176.014C188.476 176.013 188.279 176.052 188.096 176.128C187.914 176.204 187.748 176.316 187.609 176.457C187.47 176.598 187.361 176.766 187.288 176.95C187.215 177.134 187.179 177.331 187.184 177.529Z" fill="#263238"/>
<path d="M184.55 175.974C184.76 176.159 185.871 175.168 187.53 175.095C189.189 175.023 190.477 175.724 190.639 175.515C190.8 175.305 190.502 175.063 189.946 174.709C189.188 174.261 188.311 174.058 187.433 174.128C186.568 174.181 185.744 174.512 185.082 175.071C184.599 175.515 184.421 175.885 184.55 175.974Z" fill="#263238"/>
<path d="M203.749 177.239C203.774 177.644 203.957 178.023 204.258 178.294C204.56 178.566 204.955 178.708 205.36 178.69C205.558 178.692 205.754 178.655 205.938 178.58C206.121 178.505 206.287 178.394 206.427 178.253C206.567 178.113 206.677 177.945 206.751 177.762C206.825 177.578 206.861 177.381 206.858 177.183C206.831 176.779 206.648 176.401 206.347 176.13C206.046 175.859 205.652 175.717 205.247 175.732C205.05 175.731 204.854 175.769 204.671 175.845C204.488 175.92 204.322 176.031 204.183 176.172C204.043 176.312 203.933 176.479 203.859 176.662C203.784 176.845 203.747 177.041 203.749 177.239Z" fill="#263238"/>
<path d="M201.438 175.974C201.647 176.159 202.759 175.168 204.418 175.095C206.077 175.023 207.357 175.724 207.526 175.514C207.695 175.305 207.389 175.063 206.826 174.708C206.071 174.26 205.196 174.057 204.321 174.128C203.456 174.181 202.632 174.512 201.97 175.071C201.486 175.514 201.333 175.885 201.438 175.974Z" fill="#263238"/>
<path d="M212.447 154.236C211.693 156.015 211.472 157.975 211.809 159.878C212.147 161.781 213.028 163.545 214.348 164.956C215.467 166.117 216.884 167.003 217.859 168.301C219.872 170.985 219.542 174.676 219.864 178.013C220.009 179.561 220.371 181.237 221.475 182.261C222.578 183.284 224.736 183.389 225.501 182.059C225.717 181.638 225.858 181.183 225.92 180.713C226.623 176.99 227.321 173.269 228.014 169.55C228.537 166.753 229.069 163.908 228.586 161.087C228.304 159.446 227.681 157.883 226.759 156.497C225.837 155.112 224.635 153.935 223.231 153.042C221.827 152.149 220.252 151.56 218.607 151.313C216.962 151.067 215.283 151.167 213.679 151.609" fill="#263238"/>
<path d="M214.219 151.874C210.345 151.133 208.171 149.892 205.433 148.65C202.728 147.307 199.639 146.956 196.703 147.659C194.754 148.207 192.91 149.384 190.904 149.36C188.899 149.336 187.119 148.159 185.219 147.554C183.918 147.152 182.549 147.017 181.195 147.155C179.84 147.294 178.527 147.703 177.334 148.36C175.458 149.392 173.775 151.238 173.614 153.495C173.453 155.751 175.466 158.081 177.487 157.436C175.377 158.169 174.524 161.28 175.571 163.352C176.118 164.326 176.953 165.106 177.96 165.587C178.968 166.067 180.1 166.224 181.2 166.036C183.429 165.544 185.43 164.321 186.886 162.562C186.934 165.077 189.455 166.842 191.79 166.769C194.126 166.697 196.236 165.294 198.16 163.852C200.085 162.409 202.034 160.837 204.321 160.329C205.932 159.975 207.542 160.168 209.153 159.975C210.764 159.781 212.495 159.08 213.276 157.557C214.058 156.033 217.15 154.244 215.531 154.196" fill="#263238"/>
<path d="M191.267 164.247C191.546 164.415 191.833 164.568 192.128 164.706C192.968 164.985 193.874 164.985 194.714 164.706C195.296 164.536 195.854 164.289 196.373 163.973C196.936 163.634 197.508 163.167 198.12 162.755C198.757 162.271 199.433 161.839 200.141 161.466C200.925 161.065 201.79 160.847 202.67 160.829C204.466 160.829 206.085 161.281 207.551 161.152C208.196 161.112 208.824 160.932 209.392 160.623C209.96 160.313 210.453 159.883 210.836 159.362C211.379 158.662 211.719 157.825 211.819 156.944C211.883 156.316 211.819 155.961 211.859 155.961C211.899 155.961 211.899 156.042 211.932 156.211C211.974 156.456 211.99 156.704 211.98 156.952C211.944 157.883 211.629 158.781 211.078 159.532C210.707 160.062 210.234 160.511 209.685 160.853C209.05 161.242 208.332 161.474 207.591 161.53C206.028 161.684 204.369 161.208 202.686 161.24C201.003 161.272 199.554 162.199 198.346 163.062C197.725 163.497 197.146 163.924 196.55 164.263C195.999 164.585 195.405 164.827 194.786 164.98C193.892 165.253 192.931 165.21 192.064 164.859C191.835 164.752 191.623 164.61 191.436 164.44C191.318 164.322 191.261 164.257 191.267 164.247Z" fill="#263238"/>
<path d="M213.019 147.893C213.027 148.789 213.105 149.684 213.252 150.568C213.534 151.421 213.887 152.249 214.307 153.043C213.59 152.421 213.082 151.593 212.851 150.671C212.621 149.75 212.679 148.78 213.019 147.893Z" fill="#263238"/>
<path d="M217.311 147.715C217.4 147.804 216.361 148.787 215.588 150.335C214.815 151.882 214.597 153.285 214.477 153.261C214.389 152.17 214.645 151.079 215.209 150.141C215.647 149.137 216.38 148.291 217.311 147.715Z" fill="#263238"/>
<path d="M271.164 267.229L288.696 312.373H261.862L249.355 280.23L271.164 267.229Z" fill="#B78876"/>
<path d="M176.135 230.572C176.135 230.572 153.013 254.389 143.027 254.389C139.758 254.389 137.197 214.718 137.156 203.281C137.686 201.804 138.444 200.42 139.403 199.178C140.248 197.998 141.224 196.917 142.311 195.954C143.682 194.778 145.208 193.794 146.845 193.029C148.407 192.481 148.536 190.345 147.11 189.918C145.685 189.49 141.352 190.901 137.446 194.584C133.54 198.268 134.724 190.022 135.095 187.016C135.465 184.01 136.166 174.636 135.328 173.814C134.104 172.605 132.55 173.725 132.244 176.739C131.938 179.754 130.464 188.765 128.853 188.531C127.243 188.297 129.385 172.992 129.385 172.992C129.385 172.992 130.359 169.768 128.58 169.445C125.294 168.857 124.271 185.267 124.215 186.831C124.215 187.919 122.443 187.733 122.548 186.565C122.652 185.396 124.964 171.331 121.654 170.694C119.101 170.211 120.687 184.195 118.585 186.879C116.484 189.563 118.465 176.119 116 175.756C115.082 175.627 114.39 175.651 114.39 183.502C114.39 187.725 116 194.101 115.372 202.225C116.435 226.212 115.259 293.569 141.948 285.59C171.27 276.804 191.307 257.581 191.307 257.581L176.135 230.572Z" fill="#B78876"/>
<path d="M240.867 251.915C240.986 252.222 241.073 252.541 241.125 252.866C241.27 253.479 241.455 254.373 241.665 255.486C242.075 257.71 242.567 260.797 242.945 264.223C243.324 267.648 243.517 270.767 243.597 273.024C243.597 274.153 243.654 275.071 243.646 275.7C243.671 276.029 243.655 276.359 243.597 276.683C243.529 276.363 243.491 276.036 243.485 275.708C243.436 274.991 243.372 274.096 243.299 273.04C243.146 270.792 242.905 267.688 242.494 264.271C242.083 260.854 241.689 257.767 241.334 255.534C241.173 254.486 241.045 253.608 240.932 252.898C240.872 252.574 240.85 252.244 240.867 251.915Z" fill="#263238"/>
<path d="M172.221 312.373L246.086 312.744L243.597 297.14C244.25 289.735 244.214 282.285 243.493 274.886L247.238 285.034L277.768 269.72C277.768 269.72 266.67 240.107 257.377 230.073C245.643 217.394 224.519 218.66 224.519 218.66L210.249 228.332L197.114 219.071C190.068 219.898 183.209 221.894 176.819 224.979L176.143 225.172V225.317C168.395 229.347 157.338 239.237 146.812 248.82L158.965 260.66L172.422 273.21C173.184 273.096 173.956 273.064 174.725 273.113C174.951 274.499 172.221 312.373 172.221 312.373Z" fill="#455A64"/>
<path opacity="0.2" d="M241.222 247.184L251.264 283.019L247.238 285.034L243.501 274.886C243.501 274.886 239.853 253.64 241.222 247.184Z" fill="black"/>
<path d="M196.292 218.966V215.097C196.292 215.097 207.824 214.202 210.16 227.84C210.16 227.84 213.921 215.097 225.115 213.815L226.726 219.772C226.726 219.772 221.418 236.367 220.653 236.512C219.888 236.657 210.184 239.487 210.184 239.487L204.547 238.213L198.305 231.096L196.292 218.966Z" fill="#455A64"/>
<path d="M226.975 219.32C226.785 219.565 226.569 219.79 226.331 219.989C225.912 220.416 225.3 221.013 224.575 221.795C222.694 223.815 221.018 226.018 219.574 228.372C219.22 228.952 218.898 229.524 218.592 230.08L218.407 230.419L218.229 230.08C216.949 227.662 215.813 225.567 214.944 223.931C214.756 223.615 214.507 223.341 214.211 223.125C213.973 222.96 213.694 222.862 213.405 222.843C213.166 222.839 212.929 222.88 212.705 222.963C212.705 222.963 212.89 222.706 213.414 222.697C213.727 222.693 214.035 222.78 214.299 222.947C214.643 223.172 214.935 223.469 215.153 223.818C216.063 225.341 217.223 227.477 218.568 229.919H218.246C218.552 229.355 218.874 228.767 219.236 228.186C220.685 225.8 222.412 223.595 224.382 221.617C225.139 220.86 225.783 220.288 226.242 219.901C226.458 219.673 226.705 219.478 226.975 219.32Z" fill="#263238"/>
<path d="M195.543 220.038C195.75 220.207 195.934 220.402 196.091 220.618C196.429 221.013 196.896 221.586 197.468 222.303C198.62 223.73 200.182 225.72 201.889 227.945L202.163 228.3H201.809C202.429 227.163 202.477 225.882 202.759 224.705C202.938 223.637 203.513 222.675 204.37 222.013C204.672 221.812 205.017 221.683 205.378 221.637C205.738 221.591 206.104 221.629 206.447 221.747C206.628 221.823 206.794 221.929 206.939 222.061C207.027 222.166 207.059 222.222 207.051 222.23C206.847 222.097 206.628 221.986 206.399 221.9C206.081 221.82 205.749 221.811 205.426 221.872C205.103 221.933 204.798 222.064 204.531 222.255C203.777 222.904 203.287 223.807 203.154 224.793C203.004 226.067 202.682 227.315 202.195 228.501L202.042 228.783L201.849 228.525L201.575 228.171C199.868 225.954 198.354 223.931 197.251 222.456C196.711 221.723 196.276 221.118 195.978 220.699C195.806 220.498 195.659 220.276 195.543 220.038Z" fill="#263238"/>
<path d="M203.749 312.373C203.739 312.298 203.739 312.222 203.749 312.147C203.749 311.986 203.749 311.769 203.749 311.511C203.749 310.914 203.822 310.092 203.878 309.044C204.015 306.876 204.216 303.789 204.45 299.993C204.982 292.32 205.706 281.777 206.504 270.131L208.67 240.309C208.968 236.512 209.21 233.433 209.379 231.265C209.467 230.217 209.54 229.395 209.596 228.807C209.596 228.541 209.644 228.331 209.661 228.162C209.651 228.093 209.651 228.022 209.661 227.953C209.675 228.024 209.675 228.098 209.661 228.17V228.807C209.661 229.403 209.58 230.226 209.524 231.273C209.387 233.441 209.193 236.528 208.952 240.325C208.428 247.998 207.704 258.54 206.906 270.187C206.109 281.834 205.296 292.376 204.732 300.009C204.434 303.805 204.2 306.884 204.031 309.052C203.935 310.1 203.862 310.922 203.814 311.519C203.814 311.777 203.765 311.986 203.749 312.155C203.761 312.228 203.761 312.301 203.749 312.373Z" fill="#263238"/>
<path d="M177.23 240.671C177.243 241.1 177.219 241.529 177.157 241.953C177.093 242.848 176.996 244.016 176.883 245.435C176.666 248.369 176.441 252.439 176.191 256.936C175.941 261.434 175.667 265.496 175.386 268.438C175.241 269.905 175.096 271.098 174.975 271.912C174.936 272.34 174.857 272.764 174.741 273.177C174.728 272.749 174.752 272.32 174.814 271.896C174.886 271.001 174.975 269.824 175.088 268.414C175.313 265.472 175.53 261.402 175.788 256.912C176.046 252.423 176.304 248.344 176.594 245.403C176.738 243.936 176.883 242.751 177.004 241.929C177.044 241.504 177.119 241.083 177.23 240.671Z" fill="#263238"/>
<path d="M209.387 225.89C209.387 225.89 205.425 231.072 206.004 231.846L209.387 236.368H211.803C211.803 236.368 214.058 230.032 213.478 229.226C212.898 228.42 209.387 225.89 209.387 225.89Z" fill="#407BFF"/>
<path d="M215.427 224.495L211.054 227.913L212.729 231.128L217.223 227.808L215.427 224.495Z" fill="#407BFF"/>
<path d="M202.582 226.655L206.568 229.984L208.775 226.655L203.741 222.827L202.582 226.655Z" fill="#407BFF"/>
<path d="M209.339 236.359L203.258 290.893L209.242 309.85L217.223 291.062L211.972 235.714L209.339 236.359Z" fill="#407BFF"/>
<path d="M251.884 226.228C251.633 226.024 251.363 225.843 251.079 225.688C250.293 225.323 249.397 225.272 248.574 225.543C247.369 226.006 246.298 226.762 245.458 227.743C244.349 228.888 243.391 230.169 242.607 231.556C241.192 234.093 240.366 236.917 240.191 239.817C240.062 242.05 240.344 243.428 240.255 243.436C240.155 243.124 240.085 242.803 240.046 242.477C239.922 241.594 239.874 240.701 239.901 239.809C239.986 236.84 240.79 233.936 242.244 231.346C243.044 229.927 244.033 228.623 245.184 227.469C246.076 226.457 247.217 225.696 248.494 225.261C248.934 225.127 249.397 225.083 249.855 225.131C250.313 225.18 250.757 225.32 251.159 225.543C251.374 225.667 251.567 225.825 251.731 226.011C251.852 226.14 251.892 226.22 251.884 226.228Z" fill="#263238"/>
<path d="M309.441 158.782C304.279 161.95 300.695 167.245 298.569 172.911C296.443 178.578 295.638 184.655 295.01 190.643C293.346 206.563 292.789 222.579 293.343 238.576C312.856 241.043 332.522 243.525 352.132 242.187C348.725 219.756 346.567 197.349 349.297 174.822" fill="#263238"/>
<path d="M353.276 345.185L339.045 316.427L344.473 295.391C345.11 299.848 345.673 303.717 345.673 303.717L376.155 302.105C376.423 302.091 376.686 302.021 376.926 301.9C377.165 301.778 377.377 301.608 377.548 301.401C377.718 301.193 377.844 300.952 377.916 300.693C377.988 300.434 378.006 300.162 377.967 299.896L372.064 257.823C372.064 257.823 370.155 238.302 351.689 231.048H351.601C350.86 230.758 350.086 230.5 349.289 230.242C324.396 221.601 301.082 221.658 275.142 230.516C275.142 230.516 263.618 233.619 258.029 248.667C252.44 263.715 246.754 285.832 246.754 285.832L272.605 294.996L272.774 290.619L278.492 312.51L265.953 344.396L309.723 345.476L353.276 345.185Z" fill="#407BFF"/>
<path d="M246.778 285.55L243.871 299.252C241.375 311.06 250.112 323.182 262.096 324.544L325.806 331.089C329.163 331.467 332.562 331.17 335.802 330.214C339.043 329.258 342.06 327.662 344.675 325.522C347.29 323.382 349.451 320.739 351.031 317.75C352.61 314.761 353.576 311.486 353.872 308.118L273.548 300.461L274.047 292.739L246.778 285.55Z" fill="#407BFF"/>
<path d="M326.45 299.566L331.395 298.647C331.395 298.647 343.12 285.808 345.319 285.63C347.131 285.477 357.109 285.574 360.62 285.63C360.938 285.634 361.241 285.764 361.464 285.99C361.687 286.216 361.812 286.521 361.812 286.839C361.812 287.153 361.691 287.455 361.473 287.68C361.255 287.906 360.958 288.038 360.644 288.048L348.862 288.508L348.806 289.459L360.604 289.612C361.812 289.709 362.577 291.611 358.736 291.957L348.862 292.304V292.916L358.873 294.319C359.38 294.391 360.709 294.649 360.717 295.165C360.717 295.165 361.329 296.415 358.47 296.777C357.496 296.898 348.806 296.608 348.806 296.608L349.136 297.414L358.14 299.356C358.455 299.425 358.732 299.61 358.916 299.874C359.1 300.139 359.176 300.464 359.13 300.783C359.086 301.11 358.917 301.406 358.659 301.611C358.4 301.815 358.073 301.911 357.745 301.879L348.138 300.993L338.699 308.529H326.055L326.45 299.566Z" fill="#FFBE9D"/>
<path d="M295.139 224.31C295.139 224.31 307.549 287.823 311.922 287.363C316.295 286.904 336.807 226.486 336.807 226.486C336.807 226.486 310.593 218.499 295.139 224.31Z" fill="#FAFAFA"/>
<path d="M350.054 285.792C349.942 285.792 349.845 281.407 349.845 276.007C349.845 270.607 349.942 266.23 350.054 266.23C350.167 266.23 350.264 270.607 350.264 276.007C350.264 281.407 350.175 285.792 350.054 285.792Z" fill="#263238"/>
<path d="M273.87 286.203C273.888 285.26 273.974 284.32 274.128 283.39C274.345 281.649 274.667 279.263 275.054 276.627C275.44 273.992 275.803 271.598 276.093 269.881C276.209 268.942 276.394 268.012 276.648 267.101C276.631 268.046 276.544 268.989 276.391 269.922C276.173 271.654 275.851 274.048 275.464 276.684C275.078 279.32 274.715 281.697 274.426 283.422C274.309 284.361 274.124 285.291 273.87 286.203Z" fill="#263238"/>
<path d="M309.723 345.435C309.701 345.24 309.701 345.043 309.723 344.847C309.723 344.42 309.723 343.864 309.723 343.163C309.723 341.696 309.723 339.576 309.78 336.956C309.876 331.717 310.158 324.488 310.52 316.508C310.883 308.529 311.205 301.299 311.382 296.06C311.455 293.481 311.519 291.377 311.567 289.862C311.567 289.169 311.567 288.604 311.616 288.177C311.611 287.98 311.627 287.783 311.664 287.589C311.681 287.785 311.681 287.982 311.664 288.177C311.664 288.602 311.664 289.166 311.664 289.87C311.664 291.329 311.664 293.448 311.616 296.068C311.519 301.307 311.229 308.537 310.875 316.524C310.52 324.512 310.182 331.733 310.013 336.964C309.933 339.552 309.868 341.655 309.828 343.163C309.828 343.864 309.828 344.428 309.772 344.847C309.768 345.044 309.751 345.241 309.723 345.435Z" fill="#263238"/>
<path d="M336.702 226.381C336.702 226.381 336.742 226.655 336.839 227.187C336.977 227.938 337.191 228.672 337.475 229.38C337.929 230.494 338.467 231.572 339.086 232.604C339.92 233.981 340.681 235.402 341.365 236.859C342.24 238.648 342.576 240.654 342.331 242.63C342.132 243.728 341.689 244.766 341.035 245.669C340.354 246.608 339.594 247.487 338.764 248.296C336.991 249.997 335.373 251.852 333.932 253.842C332.395 255.974 331.528 258.516 331.443 261.144C331.444 262.465 331.736 263.769 332.297 264.965C332.887 266.14 333.408 267.348 333.859 268.584C334.063 269.213 334.147 269.874 334.109 270.534C334.062 271.192 333.855 271.829 333.505 272.388C332.774 273.385 331.864 274.237 330.823 274.903L320.732 282.35L313.911 287.331L312.043 288.677L311.551 289.016L311.374 289.12C311.374 289.12 311.423 289.064 311.527 288.975L311.994 288.605L313.814 287.202L320.523 282.1L330.557 274.588C331.556 273.949 332.427 273.129 333.126 272.17C333.444 271.668 333.632 271.095 333.674 270.502C333.704 269.888 333.622 269.273 333.432 268.688C332.985 267.471 332.466 266.282 331.878 265.126C331.293 263.88 330.991 262.52 330.992 261.144C331.077 258.434 331.971 255.812 333.561 253.616C335.017 251.604 336.656 249.732 338.458 248.022C340.109 246.41 341.631 244.629 341.953 242.566C342.205 240.657 341.894 238.715 341.059 236.98C340.397 235.52 339.658 234.097 338.844 232.717C338.242 231.659 337.722 230.557 337.29 229.42C337.018 228.697 336.828 227.945 336.726 227.179C336.697 226.982 336.678 226.783 336.67 226.583C336.669 226.514 336.68 226.446 336.702 226.381Z" fill="#263238"/>
<path d="M311.873 286.71H311.68L311.108 286.605C310.38 286.454 309.662 286.257 308.958 286.017C306.363 285.138 303.96 283.77 301.879 281.987C298.769 279.31 296.509 275.779 295.38 271.832C294.715 269.513 294.442 267.099 294.575 264.69C294.641 263.421 294.811 262.16 295.082 260.918C295.39 259.683 295.426 258.396 295.187 257.146C295.02 256.553 294.68 256.023 294.212 255.623C293.712 255.257 293.15 254.984 292.553 254.817C291.958 254.615 291.337 254.454 290.733 254.204C290.134 253.956 289.587 253.595 289.123 253.14C288.25 252.221 287.672 251.062 287.464 249.812C287.24 248.646 287.175 247.456 287.27 246.273C287.647 242.225 288.535 238.242 289.912 234.417C290.831 231.842 291.963 229.349 293.294 226.962C293.77 226.156 294.156 225.478 294.438 225.059L294.752 224.576C294.784 224.516 294.824 224.462 294.873 224.415C294.873 224.415 294.873 224.479 294.792 224.592L294.51 225.1C294.253 225.535 293.89 226.196 293.431 227.042C292.171 229.448 291.094 231.946 290.21 234.514C288.896 238.326 288.044 242.282 287.673 246.297C287.595 247.446 287.665 248.6 287.883 249.731C288.082 250.9 288.62 251.984 289.429 252.85C289.866 253.264 290.377 253.592 290.935 253.817C291.498 254.051 292.111 254.212 292.731 254.422C293.377 254.609 293.984 254.915 294.518 255.325C295.053 255.778 295.441 256.382 295.63 257.058C295.889 258.368 295.856 259.719 295.533 261.015C295.268 262.241 295.098 263.486 295.026 264.739C294.907 267.105 295.179 269.474 295.831 271.751C296.925 275.637 299.121 279.122 302.153 281.786C304.195 283.577 306.548 284.979 309.095 285.92C309.997 286.243 310.706 286.452 311.213 286.581L311.769 286.726C311.803 286.719 311.838 286.714 311.873 286.71Z" fill="#263238"/>
<path d="M345.391 299.655L292.022 297.93L292.103 315.662L327.441 323.432L352.301 327.405C367.747 327.405 380.109 313.211 377.718 297.938H377.653L345.391 299.655Z" fill="#407BFF"/>
<path d="M360.081 299.316C359.852 299.353 359.62 299.369 359.388 299.365L357.407 299.421L350.111 299.55C343.95 299.647 335.437 299.751 326.031 299.655C316.625 299.558 308.113 299.228 301.96 298.849C298.883 298.639 296.403 298.446 294.712 298.268L292.739 298.067C292.506 298.054 292.274 298.022 292.046 297.97C292.277 297.951 292.508 297.951 292.739 297.97L294.72 298.091C296.443 298.212 298.932 298.365 301.968 298.534C308.121 298.873 316.625 299.171 326.031 299.26C335.437 299.348 343.934 299.26 350.095 299.26H357.399H359.38C359.615 299.261 359.849 299.28 360.081 299.316Z" fill="#263238"/>
<path d="M291.571 299.566L286.626 298.647C286.626 298.647 274.901 285.808 272.694 285.63C270.89 285.477 260.912 285.574 257.433 285.63C257.115 285.634 256.812 285.764 256.589 285.99C256.366 286.216 256.241 286.521 256.241 286.839C256.241 287.152 256.361 287.452 256.578 287.678C256.794 287.903 257.089 288.036 257.401 288.048L269.191 288.508L269.247 289.459L257.441 289.612C256.241 289.709 255.468 291.611 259.317 291.957L269.191 292.304V292.916L259.18 294.319C258.673 294.391 257.344 294.649 257.328 295.165C257.328 295.165 256.724 296.415 259.575 296.777C260.558 296.898 269.239 296.608 269.239 296.608L268.901 297.414L259.905 299.356C259.591 299.426 259.314 299.611 259.129 299.875C258.944 300.14 258.865 300.463 258.907 300.783C258.953 301.109 259.122 301.404 259.38 301.608C259.638 301.812 259.964 301.909 260.292 301.879L269.907 300.993L279.346 308.529H291.958L291.571 299.566Z" fill="#FFBE9D"/>
<path d="M351.351 327.115C351.15 327.138 350.948 327.138 350.747 327.115L349.024 326.93C347.518 326.76 345.359 326.486 342.686 326.124C337.338 325.382 329.977 324.214 321.9 322.634C313.822 321.054 306.599 319.345 301.332 318.007C298.722 317.346 296.613 316.782 295.163 316.395L293.496 315.912C293.298 315.862 293.104 315.797 292.916 315.718C293.118 315.735 293.318 315.773 293.512 315.831L295.203 316.234L301.404 317.749C306.647 319.007 313.911 320.659 321.981 322.247C330.05 323.835 337.403 325.044 342.726 325.858L349.04 326.801L350.755 327.067C350.955 327.071 351.153 327.088 351.351 327.115Z" fill="#263238"/>
<path d="M292.586 315.734C292.351 314.91 292.194 314.065 292.119 313.212C291.909 311.6 291.684 309.456 291.555 307.046C291.426 304.636 291.434 302.435 291.482 300.848C291.471 299.991 291.538 299.136 291.684 298.292C291.779 299.143 291.812 300 291.78 300.856C291.78 302.468 291.853 304.612 291.974 307.021C292.094 309.431 292.28 311.599 292.417 313.171C292.53 314.021 292.586 314.877 292.586 315.734Z" fill="#263238"/>
<path d="M298.416 316.427C298.309 316.213 298.231 315.985 298.183 315.75C298.062 315.315 297.901 314.67 297.74 313.872C296.882 309.691 296.611 305.41 296.935 301.154C296.999 300.348 297.079 299.679 297.152 299.227C297.165 298.99 297.214 298.757 297.297 298.534C297.327 299.413 297.305 300.293 297.232 301.17C297.168 302.782 297.144 305.039 297.297 307.513C297.45 309.987 297.74 312.212 297.998 313.816C298.191 314.677 298.331 315.549 298.416 316.427Z" fill="#263238"/>
<path d="M293.488 301.13C293.536 301.178 293.23 301.396 293.238 301.936C293.238 302.073 293.267 302.208 293.322 302.333C293.378 302.458 293.459 302.57 293.56 302.661C293.693 302.75 293.848 302.797 294.007 302.797C294.166 302.797 294.322 302.75 294.454 302.661C294.598 302.586 294.716 302.468 294.793 302.324C294.869 302.181 294.9 302.017 294.881 301.855C294.854 301.721 294.8 301.595 294.72 301.484C294.641 301.373 294.54 301.279 294.422 301.21C293.995 300.952 293.617 301.106 293.617 301.041C293.617 300.977 293.947 300.695 294.551 300.952C294.723 301.023 294.877 301.133 295 301.272C295.122 301.412 295.211 301.579 295.26 301.759C295.288 301.997 295.246 302.24 295.138 302.455C295.03 302.67 294.861 302.848 294.652 302.968C294.443 303.087 294.204 303.142 293.964 303.127C293.724 303.111 293.494 303.025 293.303 302.879C293.165 302.75 293.059 302.589 292.995 302.411C292.93 302.234 292.909 302.043 292.932 301.855C293.029 301.235 293.488 301.073 293.488 301.13Z" fill="#263238"/>
<path d="M303.192 319.047C303.01 319.07 302.826 319.07 302.644 319.047C302.282 319.047 301.759 319.047 301.074 319.047C299.155 319.098 297.242 319.278 295.348 319.587C292.54 320.064 289.758 320.683 287.013 321.441C283.896 322.247 280.498 323.255 276.85 324.052C273.419 324.853 269.903 325.235 266.38 325.189C263.501 325.114 260.653 324.57 257.948 323.577C256.134 322.889 254.434 321.93 252.907 320.732C252.496 320.404 252.106 320.052 251.739 319.676C251.601 319.556 251.477 319.421 251.369 319.273C251.369 319.273 251.925 319.789 252.98 320.603C254.522 321.738 256.22 322.645 258.021 323.295C260.718 324.252 263.552 324.767 266.413 324.818C269.896 324.84 273.369 324.45 276.761 323.658C280.385 322.852 283.792 321.884 286.916 321.078C289.68 320.337 292.481 319.745 295.308 319.305C297.217 319.024 299.145 318.89 301.074 318.902C301.759 318.902 302.29 318.902 302.644 318.975C302.829 318.982 303.012 319.006 303.192 319.047Z" fill="#263238"/>
<path d="M326.668 231.79C327.932 224.713 329.398 217.282 329.398 217.282C329.398 217.282 338.788 217.37 342.774 205.796C346.575 194.754 349.322 168.188 349.322 168.188C343.306 164.446 336.291 162.634 329.218 162.996C322.144 163.358 315.351 165.875 309.747 170.211L300.39 227.905C299.302 234.603 304.191 240.873 311.366 241.978C318.606 243.098 325.46 238.576 326.668 231.79Z" fill="#FFBE9D"/>
<path d="M342.339 188.08C342.274 188.479 342.055 188.836 341.73 189.075C341.405 189.315 340.999 189.418 340.6 189.362C340.402 189.345 340.21 189.288 340.035 189.195C339.859 189.102 339.705 188.975 339.58 188.82C339.455 188.666 339.363 188.488 339.308 188.297C339.254 188.106 339.238 187.907 339.263 187.71C339.33 187.31 339.55 186.953 339.877 186.714C340.203 186.475 340.61 186.372 341.01 186.428C341.207 186.447 341.398 186.505 341.571 186.599C341.745 186.693 341.898 186.82 342.022 186.974C342.146 187.128 342.238 187.305 342.292 187.495C342.347 187.685 342.363 187.884 342.339 188.08Z" fill="#263238"/>
<path d="M345.118 186.807C344.892 186.976 343.885 185.912 342.243 185.63C340.6 185.348 339.255 185.952 339.11 185.718C339.037 185.622 339.295 185.291 339.915 185.001C340.713 184.636 341.604 184.523 342.468 184.679C343.324 184.83 344.11 185.247 344.715 185.872C345.118 186.347 345.222 186.734 345.118 186.807Z" fill="#263238"/>
<path d="M325.476 185.38C325.408 185.778 325.189 186.133 324.865 186.373C324.54 186.612 324.136 186.715 323.736 186.661C323.345 186.625 322.985 186.434 322.735 186.132C322.484 185.83 322.363 185.441 322.399 185.049C322.467 184.65 322.687 184.292 323.013 184.051C323.339 183.811 323.745 183.706 324.147 183.76C324.537 183.801 324.895 183.994 325.144 184.297C325.392 184.6 325.512 184.989 325.476 185.38Z" fill="#263238"/>
<path d="M327.875 184.389C327.65 184.55 326.643 183.494 325 183.204C323.357 182.914 322.013 183.534 321.868 183.301C321.795 183.196 322.045 182.865 322.673 182.575C323.471 182.209 324.363 182.099 325.226 182.261C326.082 182.406 326.869 182.821 327.473 183.446C327.875 183.921 327.98 184.316 327.875 184.389Z" fill="#263238"/>
<path d="M331.685 197.623C332.599 197.513 333.524 197.513 334.439 197.623C334.866 197.623 335.244 197.623 335.397 197.365C335.509 196.939 335.489 196.49 335.341 196.075C335.123 194.987 334.898 193.851 334.664 192.658C333.738 187.822 333.15 183.84 333.352 183.792C333.553 183.744 334.447 187.661 335.373 192.513C335.59 193.714 335.8 194.85 335.993 195.938C336.165 196.491 336.14 197.087 335.921 197.623C335.834 197.762 335.716 197.879 335.576 197.964C335.436 198.049 335.278 198.101 335.115 198.115C334.872 198.148 334.626 198.148 334.382 198.115C333.466 198.068 332.559 197.903 331.685 197.623Z" fill="#263238"/>
<path d="M329.381 217.282C323.764 216.374 318.507 213.927 314.193 210.213C314.193 210.213 316.609 219.079 328.689 220.062L329.381 217.282Z" fill="#EB996E"/>
<path d="M330.3 201.5C330.06 201.044 329.708 200.656 329.276 200.374C328.845 200.092 328.349 199.925 327.835 199.888C327.468 199.857 327.097 199.901 326.747 200.017C326.397 200.134 326.074 200.32 325.798 200.565C325.528 200.799 325.338 201.11 325.253 201.457C325.168 201.803 325.192 202.168 325.323 202.5C325.534 202.841 325.843 203.111 326.208 203.276C326.574 203.441 326.981 203.493 327.376 203.427C328.2 203.286 328.988 202.984 329.696 202.54C329.904 202.441 330.093 202.305 330.251 202.137C330.329 202.057 330.38 201.956 330.399 201.847C330.417 201.738 330.403 201.625 330.356 201.524" fill="#EB996E"/>
<path d="M326.659 197.913C326.925 197.913 326.611 199.727 327.916 201.266C329.22 202.806 331.137 202.935 331.137 203.193C331.137 203.306 330.654 203.459 329.848 203.338C328.803 203.172 327.85 202.641 327.159 201.839C326.485 201.082 326.127 200.095 326.16 199.082C326.257 198.276 326.539 197.881 326.659 197.913Z" fill="#263238"/>
<path d="M317.793 161.7C320.974 168.72 331.282 177.264 339.239 180.294C338.514 178.843 334.044 174.765 333.32 173.322C336.541 176.812 341.172 181.552 346.076 182.736C346.643 182.927 347.254 182.947 347.832 182.793C348.151 182.621 348.427 182.379 348.637 182.084C348.848 181.789 348.989 181.45 349.048 181.092C349.996 177.55 350.557 173.915 350.723 170.251C350.902 167.166 349.893 164.129 347.904 161.764C345.19 158.709 340.761 157.251 336.501 156.34C332.925 155.582 329.188 155.099 325.661 155.776C322.133 156.453 318.848 158.484 317.793 161.474" fill="#263238"/>
<path d="M298.819 188.136C298.755 185.411 298.858 182.684 299.125 179.972C299.93 173.773 301.855 151.23 322.641 157.033L320.434 162.812C320.434 162.812 322.045 177.32 311.358 185.106C311.358 185.106 311.406 199.614 304.014 204.813C304.014 204.813 298.859 194.995 298.819 188.144" fill="#263238"/>
<path d="M311.801 184.114C310.573 183.621 309.233 183.473 307.927 183.687C306.625 183.922 305.468 184.66 304.706 185.743C304 186.873 303.749 188.23 304.005 189.539C304.267 190.84 304.818 192.066 305.616 193.126C306.13 193.917 306.823 194.577 307.637 195.052C308.051 195.285 308.517 195.412 308.991 195.422C309.466 195.432 309.936 195.324 310.36 195.108" fill="#FFBE9D"/>
<path d="M309.739 191.715C309.876 191.788 309.192 192.465 308.08 191.941C307.789 191.782 307.531 191.567 307.322 191.308C307.114 191.05 306.958 190.753 306.864 190.434C306.629 189.717 306.541 188.96 306.606 188.209C306.649 187.404 306.977 186.641 307.533 186.057C307.768 185.808 308.058 185.617 308.379 185.496C308.7 185.376 309.044 185.331 309.385 185.364C310.585 185.549 310.81 186.444 310.665 186.444C310.52 186.444 310.166 186.017 309.353 186.065C308.841 186.163 308.382 186.442 308.058 186.85C307.735 187.258 307.568 187.769 307.589 188.29C307.5 189.628 307.79 190.917 308.435 191.336C309.079 191.756 309.683 191.594 309.739 191.715Z" fill="#EB996E"/>
<path d="M309.723 195.101C306.502 214.372 309.119 234.071 309.723 253.608C309.78 255.478 309.796 257.437 308.918 259.105C307.637 261.628 304.642 262.861 301.815 263.03C298.988 263.2 296.177 262.547 293.367 262.313C293.061 260.443 292.763 258.565 292.457 256.671C291.515 258.831 290.572 260.983 289.638 263.119C290.878 249.417 292.237 235.715 293.713 222.013" fill="#263238"/>
</svg>
