<svg width="64.00001" height="30.999999999999996" xmlns="http://www.w3.org/2000/svg" xmlns:inkscape="http://www.inkscape.org/namespaces/inkscape" xmlns:sodipodi="http://sodipodi.sourceforge.net/DTD/sodipodi-0.dtd" xml:space="preserve" version="1.1">
 <metadata id="metadata19">image/svg+xml</metadata>

 <g>
  <title>Layer 1</title>
  <path stroke-width="0.5619" fill="#0082C9" d="m32.0281,0.94691c-6.63038,0 -12.24935,4.49517 -13.99122,10.56366c-1.51713,-3.259 -4.77613,-5.50659 -8.59702,-5.50659c-5.16945,0 -9.43986,4.27041 -9.43986,9.49605c0,5.22564 4.27041,9.49605 9.49605,9.49605c3.7647,0 7.07989,-2.24759 8.59701,-5.50659c1.68569,6.06848 7.30466,10.56366 13.93504,10.56366c6.57418,0 12.19315,-4.43899 13.99121,-10.45128c1.51713,3.14662 4.77612,5.33802 8.48464,5.33802c5.22564,0 9.49605,-4.27041 9.49605,-9.49605c0,-5.22564 -4.27041,-9.43986 -9.49605,-9.43986c-3.70852,0 -6.96751,2.1914 -8.48464,5.33802c-1.79806,-5.95611 -7.36084,-10.39509 -13.99121,-10.39509zm0,5.56278c5.00087,0 8.99034,3.98946 8.99034,8.99034c0,5.00088 -3.98947,8.99034 -8.99034,8.99034c-5.00088,0 -8.99035,-3.98946 -8.99035,-8.99034c0,-5.00088 3.98947,-8.99034 8.99035,-8.99034zm-22.53205,5.05706c2.1914,0 3.93327,1.74188 3.93327,3.93328c0,2.19139 -1.74187,3.93328 -3.93327,3.93328c-2.1914,0 -3.93328,-1.74189 -3.93328,-3.93328c0,-2.1914 1.74188,-3.93328 3.93328,-3.93328zm45.0079,0c2.1914,0 3.93328,1.74188 3.93328,3.93328c0,2.19139 -1.74188,3.93328 -3.93328,3.93328c-2.19139,0 -3.93327,-1.74189 -3.93327,-3.93328c0.05619,-2.1914 1.74187,-3.93328 3.93327,-3.93328z" class="st0"  id="XMLID_107_"/>
 </g>
</svg>